<svg xmlns="http://www.w3.org/2000/svg" viewBox="0 0 900 600" role="img" aria-label="Red: Ethernet, Wi‑Fi y Bluetooth"><rect width="900" height="600" fill="#f4f5f3"/><rect x="115" y="180" width="290" height="240" rx="24" fill="#4e555a"/><rect x="175" y="245" width="170" height="105" rx="8" fill="#171b1e"/><g stroke="#c8a65d" stroke-width="8"><line x1="195" y1="255" x2="195" y2="300"/><line x1="215" y1="255" x2="215" y2="300"/><line x1="235" y1="255" x2="235" y2="300"/><line x1="255" y1="255" x2="255" y2="300"/><line x1="275" y1="255" x2="275" y2="300"/><line x1="295" y1="255" x2="295" y2="300"/><line x1="315" y1="255" x2="315" y2="300"/></g><path d="M520 385 q85-85 170 0 M555 350 q50-50 100 0 M595 315 q15-15 30 0" fill="none" stroke="#536d82" stroke-width="18" stroke-linecap="round"/><circle cx="610" cy="420" r="15" fill="#536d82"/><text x="450" y="565" text-anchor="middle" font-family="Arial,sans-serif" font-size="34" font-weight="700" fill="#31383c">Red: Ethernet, Wi‑Fi y Bluetooth</text></svg>